# xmcd CD database file
#
# Track frame offsets:
#	151
#	29572
#	52699
#	56154
#	79263
#	90257
#	115488
#	134941
#	162148
#	183595
#	203375
#
# Disc length: 3024 seconds
#
# Revision: 2
# Processed by: cddbd v1.5.2PL0 Copyright (c) Steve Scherf et al.
# Submitted via: CDex 1.81
#
DISCID=920bce0b
DTITLE=RAab - Your're The One
DYEAR=1993
DGENRE=R&B
TTITLE0=Try My Love
TTITLE1=Foreplay
TTITLE2=Where She At?
TTITLE3=Feel Me
TTITLE4=Give In To Me
TTITLE5=Give It A Try
TTITLE6=Your're The One
TTITLE7=Close The Door
TTITLE8=Can't Let Go
TTITLE9=Good Lovin'
TTITLE10=It's Just Like That
EXTD=YEAR: 1993
EXTT0=
EXTT1=
EXTT2=
EXTT3=
EXTT4=
EXTT5=
EXTT6=
EXTT7=
EXTT8=
EXTT9=
EXTT10=
PLAYORDER=
